# xmcd CD database file
#
# Track frame offsets:
#	150
#	11307
#	21084
#	31001
#	44178
#
# Disc length: 738 seconds
#
# Revision: 0
# Processed by: cddbd v1.5.1PL2 Copyright (c) Steve Scherf et al.
# Submitted via: CDex 1.51
#
DISCID=3102e005
DTITLE=Alain Schneider - Le cadeau musical
DYEAR=2003
DGENRE=New Age
TTITLE0=Nous n'avons pas le cernveau mou!
TTITLE1=le petit carré cascadeur
TTITLE2=Le piment
TTITLE3=Vire et volte plume
TTITLE4=Un petit poème
EXTD=YEAR: 2003
EXTT0=
EXTT1=
EXTT2=
EXTT3=
EXTT4=
PLAYORDER=
